<svg width="3840" height="1000" viewBox="0 0 3840 1000" fill="none" xmlns="http://www.w3.org/2000/svg">
<path d="M2036.77 1385.78C2207.08 1252.24 2805.57 524.225 2523.67 335.468C2161.94 93.2591 1535.22 586.43 1751.76 812.334C2038.46 1111.42 2699.62 198.62 2464.21 -64.3848C2228.8 -327.389 1752.26 -182.509 1231.49 543.278" stroke="#434343" stroke-width="24" stroke-linecap="round"/>
<path d="M3675.41 -402.205C3491.99 -287.33 2820.19 373.642 3080.66 591.024C3414.89 869.963 4090.03 445.5 3898.47 198.059C3644.85 -129.549 2891.28 708.59 3097.7 994.914C3304.12 1281.24 3793.26 1187.32 4387.53 520.384" stroke="#434343" stroke-width="24" stroke-linecap="round"/>
<path d="M301.35 1817.31C484.005 1701.22 1151.38 1035.79 889.476 820.146C553.4 543.437 -118.902 972.385 74.2976 1218.55C330.09 1544.46 1078.07 701.321 869.749 416.378C661.427 131.435 172.924 228.604 -416.895 899.483" stroke="#434343" stroke-width="24" stroke-linecap="round"/>
</svg>
