<svg width="14" height="11" viewBox="0 0 14 11" fill="none" xmlns="http://www.w3.org/2000/svg">
<path fill-rule="evenodd" clip-rule="evenodd" d="M12.371 0.911883C12.1047 0.995733 12.0965 1.00347 8.71682 4.35769L5.39142 7.65803L3.88672 6.16548C2.48904 4.7791 2.36991 4.66731 2.21199 4.59389C1.81056 4.4073 1.38367 4.46626 1.06519 4.75227C0.812512 4.97918 0.687614 5.34022 0.748407 5.66799C0.810641 6.00351 0.771545 5.9598 2.86968 8.03904C4.70505 9.85789 4.81867 9.96553 4.97404 10.0328C5.17078 10.118 5.44309 10.144 5.62524 10.0949C5.93307 10.012 5.80122 10.1361 9.74269 6.21856C13.8259 2.16008 13.5927 2.40865 13.6547 2.04883C13.7406 1.55073 13.426 1.06569 12.9177 0.91241C12.7745 0.869255 12.5071 0.869004 12.371 0.911883Z" fill="#FE6D44"/>
</svg>
